<svg width="159" height="16" viewBox="0 0 159 16" fill="none" xmlns="http://www.w3.org/2000/svg">
<path d="M5.36719 7.28516H9.39062V8.61328H5.36719V12.7539H4.0293V8.61328H0.00585938V7.28516H4.0293V3.125H5.36719V7.28516ZM13.2773 15L19.1367 2.20703H11.3535V0.722656H20.875V1.97266L15.0547 15H13.2773ZM37.4473 6.80664C37.4473 7.67253 37.3854 8.51562 37.2617 9.33594C37.1445 10.1562 36.9395 10.9212 36.6465 11.6309C36.36 12.3405 35.9694 12.9622 35.4746 13.4961C34.9798 14.0299 34.3581 14.4499 33.6094 14.7559C32.8672 15.0553 31.9785 15.2051 30.9434 15.2051C30.6634 15.2051 30.3444 15.1855 29.9863 15.1465C29.6283 15.1139 29.3353 15.0651 29.1074 15V13.5938C29.3483 13.6784 29.6315 13.7467 29.957 13.7988C30.2826 13.8444 30.6016 13.8672 30.9141 13.8672C32.1315 13.8672 33.0885 13.6068 33.7852 13.0859C34.4818 12.5586 34.9831 11.8457 35.2891 10.9473C35.5951 10.0423 35.7676 9.02669 35.8066 7.90039H35.6895C35.4941 8.21289 35.237 8.5026 34.918 8.76953C34.6055 9.02995 34.2246 9.24154 33.7754 9.4043C33.3262 9.56055 32.8021 9.63867 32.2031 9.63867C31.3763 9.63867 30.6536 9.4694 30.0352 9.13086C29.4232 8.79232 28.9447 8.30078 28.5996 7.65625C28.2611 7.01172 28.0918 6.23372 28.0918 5.32227C28.0918 4.33919 28.2773 3.48958 28.6484 2.77344C29.026 2.05078 29.5534 1.49414 30.2305 1.10352C30.9076 0.712891 31.7051 0.517578 32.623 0.517578C33.3262 0.517578 33.9707 0.651042 34.5566 0.917969C35.1426 1.1849 35.6504 1.58529 36.0801 2.11914C36.5163 2.64648 36.8516 3.30078 37.0859 4.08203C37.3268 4.86328 37.4473 5.77148 37.4473 6.80664ZM32.623 1.89453C31.7572 1.89453 31.054 2.17773 30.5137 2.74414C29.9798 3.31055 29.7129 4.16341 29.7129 5.30273C29.7129 6.24674 29.944 6.99219 30.4062 7.53906C30.8685 8.08594 31.5814 8.35938 32.5449 8.35938C33.209 8.35938 33.7819 8.22591 34.2637 7.95898C34.752 7.69206 35.1263 7.35352 35.3867 6.94336C35.6536 6.5332 35.7871 6.11328 35.7871 5.68359C35.7871 5.25391 35.722 4.81771 35.5918 4.375C35.4681 3.93229 35.276 3.52539 35.0156 3.1543C34.7552 2.77669 34.4264 2.47396 34.0293 2.24609C33.6322 2.01172 33.1634 1.89453 32.623 1.89453ZM48.8926 6.80664C48.8926 7.67253 48.8307 8.51562 48.707 9.33594C48.5898 10.1562 48.3848 10.9212 48.0918 11.6309C47.8053 12.3405 47.4147 12.9622 46.9199 13.4961C46.4251 14.0299 45.8034 14.4499 45.0547 14.7559C44.3125 15.0553 43.4238 15.2051 42.3887 15.2051C42.1087 15.2051 41.7897 15.1855 41.4316 15.1465C41.0736 15.1139 40.7806 15.0651 40.5527 15V13.5938C40.7936 13.6784 41.0768 13.7467 41.4023 13.7988C41.7279 13.8444 42.0469 13.8672 42.3594 13.8672C43.5768 13.8672 44.5339 13.6068 45.2305 13.0859C45.9271 12.5586 46.4284 11.8457 46.7344 10.9473C47.0404 10.0423 47.2129 9.02669 47.252 7.90039H47.1348C46.9395 8.21289 46.6823 8.5026 46.3633 8.76953C46.0508 9.02995 45.6699 9.24154 45.2207 9.4043C44.7715 9.56055 44.2474 9.63867 43.6484 9.63867C42.8216 9.63867 42.099 9.4694 41.4805 9.13086C40.8685 8.79232 40.39 8.30078 40.0449 7.65625C39.7064 7.01172 39.5371 6.23372 39.5371 5.32227C39.5371 4.33919 39.7227 3.48958 40.0938 2.77344C40.4714 2.05078 40.9987 1.49414 41.6758 1.10352C42.3529 0.712891 43.1504 0.517578 44.0684 0.517578C44.7715 0.517578 45.416 0.651042 46.002 0.917969C46.5879 1.1849 47.0957 1.58529 47.5254 2.11914C47.9616 2.64648 48.2969 3.30078 48.5312 4.08203C48.7721 4.86328 48.8926 5.77148 48.8926 6.80664ZM44.0684 1.89453C43.2025 1.89453 42.4993 2.17773 41.959 2.74414C41.4251 3.31055 41.1582 4.16341 41.1582 5.30273C41.1582 6.24674 41.3893 6.99219 41.8516 7.53906C42.3138 8.08594 43.0267 8.35938 43.9902 8.35938C44.6543 8.35938 45.2272 8.22591 45.709 7.95898C46.1973 7.69206 46.5716 7.35352 46.832 6.94336C47.099 6.5332 47.2324 6.11328 47.2324 5.68359C47.2324 5.25391 47.1673 4.81771 47.0371 4.375C46.9134 3.93229 46.7214 3.52539 46.4609 3.1543C46.2005 2.77669 45.8717 2.47396 45.4746 2.24609C45.0775 2.01172 44.6087 1.89453 44.0684 1.89453ZM60.3379 6.80664C60.3379 7.67253 60.276 8.51562 60.1523 9.33594C60.0352 10.1562 59.8301 10.9212 59.5371 11.6309C59.2507 12.3405 58.86 12.9622 58.3652 13.4961C57.8704 14.0299 57.2487 14.4499 56.5 14.7559C55.7578 15.0553 54.8691 15.2051 53.834 15.2051C53.554 15.2051 53.235 15.1855 52.877 15.1465C52.5189 15.1139 52.2259 15.0651 51.998 15V13.5938C52.2389 13.6784 52.5221 13.7467 52.8477 13.7988C53.1732 13.8444 53.4922 13.8672 53.8047 13.8672C55.0221 13.8672 55.9792 13.6068 56.6758 13.0859C57.3724 12.5586 57.8737 11.8457 58.1797 10.9473C58.4857 10.0423 58.6582 9.02669 58.6973 7.90039H58.5801C58.3848 8.21289 58.1276 8.5026 57.8086 8.76953C57.4961 9.02995 57.1152 9.24154 56.666 9.4043C56.2168 9.56055 55.6927 9.63867 55.0938 9.63867C54.2669 9.63867 53.5443 9.4694 52.9258 9.13086C52.3138 8.79232 51.8353 8.30078 51.4902 7.65625C51.1517 7.01172 50.9824 6.23372 50.9824 5.32227C50.9824 4.33919 51.168 3.48958 51.5391 2.77344C51.9167 2.05078 52.444 1.49414 53.1211 1.10352C53.7982 0.712891 54.5957 0.517578 55.5137 0.517578C56.2168 0.517578 56.8613 0.651042 57.4473 0.917969C58.0332 1.1849 58.541 1.58529 58.9707 2.11914C59.4069 2.64648 59.7422 3.30078 59.9766 4.08203C60.2174 4.86328 60.3379 5.77148 60.3379 6.80664ZM55.5137 1.89453C54.6478 1.89453 53.9447 2.17773 53.4043 2.74414C52.8704 3.31055 52.6035 4.16341 52.6035 5.30273C52.6035 6.24674 52.8346 6.99219 53.2969 7.53906C53.7591 8.08594 54.472 8.35938 55.4355 8.35938C56.0996 8.35938 56.6725 8.22591 57.1543 7.95898C57.6426 7.69206 58.0169 7.35352 58.2773 6.94336C58.5443 6.5332 58.6777 6.11328 58.6777 5.68359C58.6777 5.25391 58.6126 4.81771 58.4824 4.375C58.3587 3.93229 58.1667 3.52539 57.9062 3.1543C57.6458 2.77669 57.3171 2.47396 56.9199 2.24609C56.5228 2.01172 56.054 1.89453 55.5137 1.89453ZM73.6387 15H72.0566V4.88281C72.0566 4.4987 72.0566 4.16992 72.0566 3.89648C72.0632 3.61654 72.0697 3.36263 72.0762 3.13477C72.0892 2.90039 72.1055 2.66276 72.125 2.42188C71.9232 2.63021 71.7344 2.80924 71.5586 2.95898C71.3828 3.10221 71.1647 3.28125 70.9043 3.49609L69.2734 4.80469L68.4238 3.70117L72.291 0.722656H73.6387V15ZM88.4043 15H79.0488V13.6426L82.8672 9.76562C83.5768 9.04948 84.1725 8.41146 84.6543 7.85156C85.1426 7.29167 85.5137 6.74154 85.7676 6.20117C86.0215 5.6543 86.1484 5.05534 86.1484 4.4043C86.1484 3.59701 85.9076 2.98177 85.4258 2.55859C84.9505 2.12891 84.3223 1.91406 83.541 1.91406C82.8574 1.91406 82.252 2.03125 81.7246 2.26562C81.1973 2.5 80.6569 2.83203 80.1035 3.26172L79.2344 2.16797C79.612 1.84896 80.0221 1.56576 80.4648 1.31836C80.9141 1.07096 81.3926 0.875651 81.9004 0.732422C82.4147 0.589193 82.9616 0.517578 83.541 0.517578C84.4199 0.517578 85.1784 0.670573 85.8164 0.976562C86.4544 1.28255 86.946 1.71875 87.291 2.28516C87.6426 2.85156 87.8184 3.52539 87.8184 4.30664C87.8184 5.06185 87.6686 5.76497 87.3691 6.41602C87.0697 7.06055 86.6497 7.70182 86.1094 8.33984C85.569 8.97135 84.9375 9.64193 84.2148 10.3516L81.1094 13.4473V13.5156H88.4043V15ZM99.3223 4.05273C99.3223 4.69076 99.1986 5.24414 98.9512 5.71289C98.7038 6.18164 98.3587 6.56576 97.916 6.86523C97.4733 7.1582 96.9525 7.36328 96.3535 7.48047V7.55859C97.4863 7.70182 98.3359 8.06641 98.9023 8.65234C99.4753 9.23828 99.7617 10.0065 99.7617 10.957C99.7617 11.7839 99.5664 12.5163 99.1758 13.1543C98.7917 13.7923 98.1992 14.2936 97.3984 14.6582C96.6042 15.0163 95.5853 15.1953 94.3418 15.1953C93.5866 15.1953 92.8867 15.1335 92.2422 15.0098C91.6042 14.8926 90.9922 14.694 90.4062 14.4141V12.8906C90.9987 13.1836 91.6432 13.4147 92.3398 13.584C93.0365 13.7467 93.7103 13.8281 94.3613 13.8281C95.6634 13.8281 96.6042 13.571 97.1836 13.0566C97.763 12.5358 98.0527 11.8262 98.0527 10.9277C98.0527 10.3092 97.89 9.8112 97.5645 9.43359C97.2454 9.04948 96.7832 8.76953 96.1777 8.59375C95.5788 8.41146 94.8561 8.32031 94.0098 8.32031H92.584V6.93359H94.0195C94.7943 6.93359 95.4518 6.81966 95.9922 6.5918C96.5326 6.36393 96.9427 6.04492 97.2227 5.63477C97.5091 5.2181 97.6523 4.72656 97.6523 4.16016C97.6523 3.4375 97.4115 2.88086 96.9297 2.49023C96.4479 2.0931 95.7936 1.89453 94.9668 1.89453C94.459 1.89453 93.9967 1.94661 93.5801 2.05078C93.1634 2.15495 92.7728 2.29818 92.4082 2.48047C92.0436 2.66276 91.679 2.87435 91.3145 3.11523L90.4941 2.00195C91.015 1.59831 91.6497 1.25 92.3984 0.957031C93.1471 0.664062 93.9967 0.517578 94.9473 0.517578C96.4056 0.517578 97.4993 0.849609 98.2285 1.51367C98.9577 2.17773 99.3223 3.02409 99.3223 4.05273ZM101.754 10.3516V8.90625H106.598V10.3516H101.754ZM118.453 11.6895H116.314V15H114.732V11.6895H107.828V10.3223L114.625 0.644531H116.314V10.2246H118.453V11.6895ZM114.732 10.2246V5.55664C114.732 5.19857 114.736 4.8763 114.742 4.58984C114.749 4.29688 114.758 4.02669 114.771 3.7793C114.785 3.52539 114.794 3.28451 114.801 3.05664C114.814 2.82878 114.824 2.60417 114.83 2.38281H114.752C114.628 2.64323 114.485 2.91992 114.322 3.21289C114.166 3.49935 114.007 3.75651 113.844 3.98438L109.439 10.2246H114.732ZM124.342 6.26953C125.312 6.26953 126.155 6.43555 126.871 6.76758C127.587 7.0931 128.141 7.56836 128.531 8.19336C128.928 8.81836 129.127 9.57682 129.127 10.4688C129.127 11.4453 128.915 12.2884 128.492 12.998C128.069 13.7012 127.46 14.2448 126.666 14.6289C125.872 15.0065 124.921 15.1953 123.814 15.1953C123.072 15.1953 122.382 15.1302 121.744 15C121.106 14.8698 120.569 14.6745 120.133 14.4141V12.8711C120.608 13.1576 121.184 13.3854 121.861 13.5547C122.538 13.724 123.196 13.8086 123.834 13.8086C124.557 13.8086 125.188 13.6947 125.729 13.4668C126.275 13.2324 126.699 12.8809 126.998 12.4121C127.304 11.9368 127.457 11.3411 127.457 10.625C127.457 9.67448 127.164 8.94206 126.578 8.42773C125.999 7.9069 125.081 7.64648 123.824 7.64648C123.421 7.64648 122.978 7.67904 122.496 7.74414C122.014 7.80924 121.617 7.88086 121.305 7.95898L120.484 7.42188L121.031 0.722656H128.131V2.20703H122.418L122.057 6.51367C122.304 6.46159 122.623 6.40951 123.014 6.35742C123.404 6.29883 123.847 6.26953 124.342 6.26953ZM131.09 10.3516V8.90625H135.934V10.3516H131.09ZM137.867 8.89648C137.867 8.03711 137.926 7.19727 138.043 6.37695C138.167 5.55664 138.372 4.79492 138.658 4.0918C138.945 3.38216 139.335 2.76042 139.83 2.22656C140.325 1.69271 140.94 1.27604 141.676 0.976562C142.418 0.670573 143.307 0.517578 144.342 0.517578C144.635 0.517578 144.951 0.533854 145.289 0.566406C145.628 0.592448 145.908 0.638021 146.129 0.703125V2.09961C145.888 2.01497 145.611 1.95312 145.299 1.91406C144.993 1.875 144.684 1.85547 144.371 1.85547C143.16 1.85547 142.206 2.11914 141.51 2.64648C140.82 3.17383 140.322 3.88997 140.016 4.79492C139.71 5.69336 139.534 6.70573 139.488 7.83203H139.596C139.798 7.50651 140.055 7.21354 140.367 6.95312C140.68 6.6862 141.057 6.47461 141.5 6.31836C141.949 6.16211 142.47 6.08398 143.062 6.08398C143.896 6.08398 144.622 6.25326 145.24 6.5918C145.865 6.93034 146.347 7.42188 146.686 8.06641C147.031 8.71094 147.203 9.49219 147.203 10.4102C147.203 11.3932 147.021 12.2428 146.656 12.959C146.292 13.6751 145.771 14.2285 145.094 14.6191C144.423 15.0033 143.622 15.1953 142.691 15.1953C141.995 15.1953 141.354 15.0618 140.768 14.7949C140.182 14.528 139.671 14.1309 139.234 13.6035C138.805 13.0762 138.469 12.4219 138.229 11.6406C137.988 10.8529 137.867 9.93815 137.867 8.89648ZM142.672 13.8281C143.557 13.8281 144.267 13.5449 144.801 12.9785C145.335 12.4121 145.602 11.556 145.602 10.4102C145.602 9.47266 145.364 8.73047 144.889 8.18359C144.413 7.63672 143.697 7.36328 142.74 7.36328C142.089 7.36328 141.523 7.5 141.041 7.77344C140.559 8.04036 140.185 8.37891 139.918 8.78906C139.651 9.19922 139.518 9.61589 139.518 10.0391C139.518 10.4688 139.579 10.9049 139.703 11.3477C139.833 11.7904 140.029 12.2005 140.289 12.5781C140.549 12.9557 140.878 13.2585 141.275 13.4863C141.673 13.7142 142.138 13.8281 142.672 13.8281ZM151.012 15L156.871 2.20703H149.088V0.722656H158.609V1.97266L152.789 15H151.012Z" fill="#212121"/>
</svg>
