<svg width="268" height="76" viewBox="0 0 268 76" fill="none" xmlns="http://www.w3.org/2000/svg">
<rect x="0.5" y="0.5" width="267" height="75" rx="4.5" stroke="#9747FF" stroke-dasharray="10 5"/>
<rect x="159.5" y="20.5" width="88" height="35" rx="7.5" fill="#09A494"/>
<rect x="159.5" y="20.5" width="88" height="35" rx="7.5" stroke="#09A494"/>
<path d="M177.016 33.2969H178.803L174.184 38.4629L179.174 44H177.27L172.406 38.5703V44H170.775V33.2969H172.406V38.4922L177.016 33.2969ZM182.738 33.2969V37.7891H188.705V33.2969H190.326V44H188.705V39.166H182.738V44H181.107V33.2969H182.738ZM202.992 38.6289C202.992 39.5078 202.878 40.2923 202.65 40.9824C202.423 41.6725 202.094 42.2552 201.664 42.7305C201.234 43.2057 200.714 43.5703 200.102 43.8242C199.496 44.0716 198.809 44.1953 198.041 44.1953C197.325 44.1953 196.667 44.0716 196.068 43.8242C195.476 43.5703 194.962 43.2057 194.525 42.7305C194.096 42.2552 193.76 41.6725 193.52 40.9824C193.285 40.2923 193.168 39.5078 193.168 38.6289C193.168 37.457 193.367 36.4609 193.764 35.6406C194.161 34.8138 194.727 34.1855 195.463 33.7559C196.205 33.3197 197.087 33.1016 198.109 33.1016C199.086 33.1016 199.939 33.3197 200.668 33.7559C201.404 34.1921 201.973 34.8236 202.377 35.6504C202.787 36.4707 202.992 37.4635 202.992 38.6289ZM194.848 38.6289C194.848 39.4883 194.962 40.2337 195.189 40.8652C195.417 41.4967 195.769 41.985 196.244 42.3301C196.719 42.6751 197.331 42.8477 198.08 42.8477C198.822 42.8477 199.431 42.6751 199.906 42.3301C200.388 41.985 200.743 41.4967 200.971 40.8652C201.199 40.2337 201.312 39.4883 201.312 38.6289C201.312 37.776 201.199 37.0404 200.971 36.4219C200.743 35.7969 200.391 35.3151 199.916 34.9766C199.441 34.638 198.826 34.4688 198.07 34.4688C196.957 34.4688 196.14 34.8366 195.619 35.5723C195.105 36.3079 194.848 37.3268 194.848 38.6289ZM214.76 33.2969V44H213.129V34.6934H207.426V44H205.795V33.2969H214.76ZM224.438 33.2969H226.225L221.605 38.4629L226.596 44H224.691L219.828 38.5703V44H218.197V33.2969H219.828V38.4922L224.438 33.2969ZM232.533 33.1211C233.809 33.1211 234.757 33.4076 235.375 33.9805C235.993 34.5534 236.303 35.4681 236.303 36.7246V44H235.121L234.809 42.418H234.73C234.431 42.8086 234.118 43.1374 233.793 43.4043C233.467 43.6647 233.09 43.8633 232.66 44C232.237 44.1302 231.716 44.1953 231.098 44.1953C230.447 44.1953 229.867 44.0814 229.359 43.8535C228.858 43.6257 228.461 43.2806 228.168 42.8184C227.882 42.3561 227.738 41.7702 227.738 41.0605C227.738 39.9928 228.161 39.1725 229.008 38.5996C229.854 38.0267 231.143 37.7142 232.875 37.6621L234.721 37.584V36.9297C234.721 36.0052 234.522 35.3574 234.125 34.9863C233.728 34.6152 233.168 34.4297 232.445 34.4297C231.885 34.4297 231.352 34.5111 230.844 34.6738C230.336 34.8366 229.854 35.0286 229.398 35.25L228.9 34.0195C229.382 33.7721 229.936 33.5605 230.561 33.3848C231.186 33.209 231.843 33.1211 232.533 33.1211ZM234.701 38.7266L233.07 38.7949C231.736 38.847 230.795 39.0651 230.248 39.4492C229.701 39.8333 229.428 40.377 229.428 41.0801C229.428 41.6921 229.613 42.1445 229.984 42.4375C230.355 42.7305 230.847 42.877 231.459 42.877C232.41 42.877 233.188 42.6133 233.793 42.0859C234.398 41.5586 234.701 40.7676 234.701 39.7129V38.7266Z" fill="white"/>
<rect x="20.5" y="20.5" width="88" height="35" rx="7.5" stroke="#09A494"/>
<path d="M38.0156 33.2969H39.8027L35.1836 38.4629L40.1738 44H38.2695L33.4062 38.5703V44H31.7754V33.2969H33.4062V38.4922L38.0156 33.2969ZM43.7383 33.2969V37.7891H49.7051V33.2969H51.3262V44H49.7051V39.166H43.7383V44H42.1074V33.2969H43.7383ZM63.9922 38.6289C63.9922 39.5078 63.8783 40.2923 63.6504 40.9824C63.4225 41.6725 63.0938 42.2552 62.6641 42.7305C62.2344 43.2057 61.7135 43.5703 61.1016 43.8242C60.4961 44.0716 59.8092 44.1953 59.041 44.1953C58.3249 44.1953 57.6673 44.0716 57.0684 43.8242C56.4759 43.5703 55.9616 43.2057 55.5254 42.7305C55.0957 42.2552 54.7604 41.6725 54.5195 40.9824C54.2852 40.2923 54.168 39.5078 54.168 38.6289C54.168 37.457 54.3665 36.4609 54.7637 35.6406C55.1608 34.8138 55.7272 34.1855 56.4629 33.7559C57.2051 33.3197 58.0872 33.1016 59.1094 33.1016C60.0859 33.1016 60.9388 33.3197 61.668 33.7559C62.4036 34.1921 62.9733 34.8236 63.377 35.6504C63.7871 36.4707 63.9922 37.4635 63.9922 38.6289ZM55.8477 38.6289C55.8477 39.4883 55.9616 40.2337 56.1895 40.8652C56.4173 41.4967 56.7689 41.985 57.2441 42.3301C57.7194 42.6751 58.3314 42.8477 59.0801 42.8477C59.8223 42.8477 60.431 42.6751 60.9062 42.3301C61.388 41.985 61.7428 41.4967 61.9707 40.8652C62.1986 40.2337 62.3125 39.4883 62.3125 38.6289C62.3125 37.776 62.1986 37.0404 61.9707 36.4219C61.7428 35.7969 61.3913 35.3151 60.916 34.9766C60.4408 34.638 59.8255 34.4688 59.0703 34.4688C57.957 34.4688 57.14 34.8366 56.6191 35.5723C56.1048 36.3079 55.8477 37.3268 55.8477 38.6289ZM75.7598 33.2969V44H74.1289V34.6934H68.4258V44H66.7949V33.2969H75.7598ZM85.4375 33.2969H87.2246L82.6055 38.4629L87.5957 44H85.6914L80.8281 38.5703V44H79.1973V33.2969H80.8281V38.4922L85.4375 33.2969ZM93.5332 33.1211C94.8092 33.1211 95.7565 33.4076 96.375 33.9805C96.9935 34.5534 97.3027 35.4681 97.3027 36.7246V44H96.1211L95.8086 42.418H95.7305C95.431 42.8086 95.1185 43.1374 94.793 43.4043C94.4674 43.6647 94.0898 43.8633 93.6602 44C93.237 44.1302 92.7161 44.1953 92.0977 44.1953C91.4466 44.1953 90.8672 44.0814 90.3594 43.8535C89.8581 43.6257 89.4609 43.2806 89.168 42.8184C88.8815 42.3561 88.7383 41.7702 88.7383 41.0605C88.7383 39.9928 89.1615 39.1725 90.0078 38.5996C90.8542 38.0267 92.1432 37.7142 93.875 37.6621L95.7207 37.584V36.9297C95.7207 36.0052 95.5221 35.3574 95.125 34.9863C94.7279 34.6152 94.168 34.4297 93.4453 34.4297C92.8854 34.4297 92.3516 34.5111 91.8438 34.6738C91.3359 34.8366 90.8542 35.0286 90.3984 35.25L89.9004 34.0195C90.3822 33.7721 90.9355 33.5605 91.5605 33.3848C92.1855 33.209 92.8431 33.1211 93.5332 33.1211ZM95.7012 38.7266L94.0703 38.7949C92.7357 38.847 91.7949 39.0651 91.248 39.4492C90.7012 39.8333 90.4277 40.377 90.4277 41.0801C90.4277 41.6921 90.6133 42.1445 90.9844 42.4375C91.3555 42.7305 91.847 42.877 92.459 42.877C93.4095 42.877 94.1875 42.6133 94.793 42.0859C95.3984 41.5586 95.7012 40.7676 95.7012 39.7129V38.7266Z" fill="#09A494"/>
</svg>
