<svg width="1100" height="638" viewBox="0 0 1100 638" fill="none" xmlns="http://www.w3.org/2000/svg">
<rect x="0.5" y="0.5" width="385" height="79" rx="4.5" stroke="#9747FF" stroke-dasharray="10 5"/>
<path d="M235.291 48V33.7227H245.926V48H244.285V35.1875H236.951V48H235.291ZM247.928 37.2969H249.666L252.029 43.5078C252.166 43.8724 252.293 44.224 252.41 44.5625C252.527 44.8945 252.632 45.2135 252.723 45.5195C252.814 45.8255 252.885 46.1217 252.938 46.4082H253.006C253.097 46.0827 253.227 45.6562 253.396 45.1289C253.566 44.5951 253.748 44.0514 253.943 43.498L256.18 37.2969H257.928L253.27 49.5723C253.022 50.2298 252.732 50.8027 252.4 51.291C252.075 51.7793 251.678 52.1536 251.209 52.4141C250.74 52.681 250.174 52.8145 249.51 52.8145C249.204 52.8145 248.934 52.7949 248.699 52.7559C248.465 52.7233 248.263 52.6842 248.094 52.6387V51.3398C248.237 51.3724 248.41 51.4017 248.611 51.4277C248.82 51.4538 249.035 51.4668 249.256 51.4668C249.66 51.4668 250.008 51.3887 250.301 51.2324C250.6 51.0827 250.857 50.8613 251.072 50.5684C251.287 50.2754 251.473 49.9271 251.629 49.5234L252.215 48.0195L247.928 37.2969ZM261.268 37.2969V41.7891H267.234V37.2969H268.855V48H267.234V43.166H261.268V48H259.637V37.2969H261.268ZM278.533 37.2969H280.32L275.701 42.4629L280.691 48H278.787L273.924 42.5703V48H272.293V37.2969H273.924V42.4922L278.533 37.2969ZM289.92 38.6738H286.395V48H284.793V38.6738H281.316V37.2969H289.92V38.6738ZM308.533 37.2969V48H307.068V41.0273C307.068 40.7409 307.075 40.4512 307.088 40.1582C307.107 39.8587 307.13 39.5592 307.156 39.2598H307.098L303.543 48H302.166L298.699 39.2598H298.641C298.66 39.5592 298.673 39.8587 298.68 40.1582C298.693 40.4512 298.699 40.7604 298.699 41.0859V48H297.225V37.2969H299.402L302.859 46.0469L306.365 37.2969H308.533ZM316.023 37.1016C316.935 37.1016 317.716 37.3034 318.367 37.707C319.018 38.1107 319.516 38.6771 319.861 39.4062C320.206 40.1289 320.379 40.9753 320.379 41.9453V42.9512H312.986C313.006 44.2077 313.318 45.1647 313.924 45.8223C314.529 46.4798 315.382 46.8086 316.482 46.8086C317.16 46.8086 317.758 46.7467 318.279 46.623C318.8 46.4993 319.34 46.3171 319.9 46.0762V47.502C319.36 47.7428 318.823 47.9186 318.289 48.0293C317.762 48.14 317.137 48.1953 316.414 48.1953C315.385 48.1953 314.487 47.987 313.719 47.5703C312.957 47.1471 312.365 46.5286 311.941 45.7148C311.518 44.901 311.307 43.9049 311.307 42.7266C311.307 41.5742 311.499 40.5781 311.883 39.7383C312.273 38.8919 312.82 38.2409 313.523 37.7852C314.233 37.3294 315.066 37.1016 316.023 37.1016ZM316.004 38.4297C315.138 38.4297 314.448 38.7129 313.934 39.2793C313.419 39.8457 313.113 40.6367 313.016 41.6523H318.68C318.673 41.0143 318.572 40.4544 318.377 39.9727C318.188 39.4844 317.898 39.1068 317.508 38.8398C317.117 38.5664 316.616 38.4297 316.004 38.4297ZM324.764 37.2969V41.7891H330.73V37.2969H332.352V48H330.73V43.166H324.764V48H323.133V37.2969H324.764ZM349.549 42.6289C349.549 43.7943 349.36 44.7936 348.982 45.627C348.611 46.4603 348.077 47.0983 347.381 47.541C346.684 47.9772 345.851 48.1953 344.881 48.1953C343.976 48.1953 343.185 48 342.508 47.6094C341.837 47.2188 341.307 46.6491 340.916 45.9004C340.532 45.1517 340.311 44.2402 340.252 43.166H337.41V48H335.789V37.2969H337.41V41.7891H340.271C340.363 40.7995 340.604 39.9564 340.994 39.2598C341.385 38.5632 341.912 38.0293 342.576 37.6582C343.24 37.2871 344.021 37.1016 344.92 37.1016C345.857 37.1016 346.671 37.3229 347.361 37.7656C348.058 38.2018 348.595 38.8333 348.973 39.6602C349.357 40.4805 349.549 41.4701 349.549 42.6289ZM341.912 42.6289C341.912 43.5273 342.013 44.2923 342.215 44.9238C342.423 45.5488 342.745 46.0273 343.182 46.3594C343.624 46.6849 344.197 46.8477 344.9 46.8477C345.597 46.8477 346.163 46.6849 346.6 46.3594C347.042 46.0339 347.365 45.5586 347.566 44.9336C347.775 44.3021 347.879 43.5339 347.879 42.6289C347.879 41.737 347.775 40.9818 347.566 40.3633C347.358 39.7448 347.036 39.276 346.6 38.957C346.163 38.6315 345.597 38.4688 344.9 38.4688C344.204 38.4688 343.634 38.6315 343.191 38.957C342.755 39.276 342.433 39.7448 342.225 40.3633C342.016 40.9818 341.912 41.737 341.912 42.6289Z" fill="#09A494"/>
<path d="M37.291 48V33.7227H47.9258V48H46.2852V35.1875H38.9512V48H37.291ZM49.9277 37.2969H51.666L54.0293 43.5078C54.166 43.8724 54.293 44.224 54.4102 44.5625C54.5273 44.8945 54.6315 45.2135 54.7227 45.5195C54.8138 45.8255 54.8854 46.1217 54.9375 46.4082H55.0059C55.097 46.0827 55.2272 45.6562 55.3965 45.1289C55.5658 44.5951 55.748 44.0514 55.9434 43.498L58.1797 37.2969H59.9277L55.2695 49.5723C55.0221 50.2298 54.7324 50.8027 54.4004 51.291C54.0749 51.7793 53.6777 52.1536 53.209 52.4141C52.7402 52.681 52.1738 52.8145 51.5098 52.8145C51.2038 52.8145 50.9336 52.7949 50.6992 52.7559C50.4648 52.7233 50.263 52.6842 50.0938 52.6387V51.3398C50.237 51.3724 50.4095 51.4017 50.6113 51.4277C50.8197 51.4538 51.0345 51.4668 51.2559 51.4668C51.6595 51.4668 52.0078 51.3887 52.3008 51.2324C52.6003 51.0827 52.8574 50.8613 53.0723 50.5684C53.2871 50.2754 53.4727 49.9271 53.6289 49.5234L54.2148 48.0195L49.9277 37.2969ZM63.2676 37.2969V41.7891H69.2344V37.2969H70.8555V48H69.2344V43.166H63.2676V48H61.6367V37.2969H63.2676ZM80.5332 37.2969H82.3203L77.7012 42.4629L82.6914 48H80.7871L75.9238 42.5703V48H74.293V37.2969H75.9238V42.4922L80.5332 37.2969ZM91.9199 38.6738H88.3945V48H86.793V38.6738H83.3164V37.2969H91.9199V38.6738ZM110.533 37.2969V48H109.068V41.0273C109.068 40.7409 109.075 40.4512 109.088 40.1582C109.107 39.8587 109.13 39.5592 109.156 39.2598H109.098L105.543 48H104.166L100.699 39.2598H100.641C100.66 39.5592 100.673 39.8587 100.68 40.1582C100.693 40.4512 100.699 40.7604 100.699 41.0859V48H99.2246V37.2969H101.402L104.859 46.0469L108.365 37.2969H110.533ZM118.023 37.1016C118.935 37.1016 119.716 37.3034 120.367 37.707C121.018 38.1107 121.516 38.6771 121.861 39.4062C122.206 40.1289 122.379 40.9753 122.379 41.9453V42.9512H114.986C115.006 44.2077 115.318 45.1647 115.924 45.8223C116.529 46.4798 117.382 46.8086 118.482 46.8086C119.16 46.8086 119.758 46.7467 120.279 46.623C120.8 46.4993 121.34 46.3171 121.9 46.0762V47.502C121.36 47.7428 120.823 47.9186 120.289 48.0293C119.762 48.14 119.137 48.1953 118.414 48.1953C117.385 48.1953 116.487 47.987 115.719 47.5703C114.957 47.1471 114.365 46.5286 113.941 45.7148C113.518 44.901 113.307 43.9049 113.307 42.7266C113.307 41.5742 113.499 40.5781 113.883 39.7383C114.273 38.8919 114.82 38.2409 115.523 37.7852C116.233 37.3294 117.066 37.1016 118.023 37.1016ZM118.004 38.4297C117.138 38.4297 116.448 38.7129 115.934 39.2793C115.419 39.8457 115.113 40.6367 115.016 41.6523H120.68C120.673 41.0143 120.572 40.4544 120.377 39.9727C120.188 39.4844 119.898 39.1068 119.508 38.8398C119.117 38.5664 118.616 38.4297 118.004 38.4297ZM126.764 37.2969V41.7891H132.73V37.2969H134.352V48H132.73V43.166H126.764V48H125.133V37.2969H126.764ZM151.549 42.6289C151.549 43.7943 151.36 44.7936 150.982 45.627C150.611 46.4603 150.077 47.0983 149.381 47.541C148.684 47.9772 147.851 48.1953 146.881 48.1953C145.976 48.1953 145.185 48 144.508 47.6094C143.837 47.2188 143.307 46.6491 142.916 45.9004C142.532 45.1517 142.311 44.2402 142.252 43.166H139.41V48H137.789V37.2969H139.41V41.7891H142.271C142.363 40.7995 142.604 39.9564 142.994 39.2598C143.385 38.5632 143.912 38.0293 144.576 37.6582C145.24 37.2871 146.021 37.1016 146.92 37.1016C147.857 37.1016 148.671 37.3229 149.361 37.7656C150.058 38.2018 150.595 38.8333 150.973 39.6602C151.357 40.4805 151.549 41.4701 151.549 42.6289ZM143.912 42.6289C143.912 43.5273 144.013 44.2923 144.215 44.9238C144.423 45.5488 144.745 46.0273 145.182 46.3594C145.624 46.6849 146.197 46.8477 146.9 46.8477C147.597 46.8477 148.163 46.6849 148.6 46.3594C149.042 46.0339 149.365 45.5586 149.566 44.9336C149.775 44.3021 149.879 43.5339 149.879 42.6289C149.879 41.737 149.775 40.9818 149.566 40.3633C149.358 39.7448 149.036 39.276 148.6 38.957C148.163 38.6315 147.597 38.4688 146.9 38.4688C146.204 38.4688 145.634 38.6315 145.191 38.957C144.755 39.276 144.433 39.7448 144.225 40.3633C144.016 40.9818 143.912 41.737 143.912 42.6289Z" fill="#212121"/>
<rect x="0.5" y="130.5" width="1099" height="17" rx="8.5" stroke="#212121"/>
<rect x="2" y="132" width="500" height="14" rx="7" fill="#09A494"/>
<path d="M25.625 201.125H4.375L6.25 222.375L15 224.875L23.75 222.375L25.625 201.125Z" fill="#E65100"/>
<path d="M15 203V222.938L22 220.937L23.5625 203H15Z" fill="#FF6D00"/>
<path d="M15 213.625V211.125H20.375L19.9375 218.312L15 219.937V217.312L17.5625 216.438L17.75 213.625H15ZM20.5625 208.625L20.75 206.125H15V208.625H20.5625Z" fill="white"/>
<path d="M15 217.312V219.937L10.0625 218.312L9.8125 214.875H12.3125L12.4375 216.438L15 217.312ZM11.9375 208.625H15V206.125H9.3125L9.75 213.625H15V211.125H12.125L11.9375 208.625Z" fill="#EEEEEE"/>
<path d="M41.3301 205.805V210.346C41.3301 210.606 41.3236 210.87 41.3105 211.137C41.2975 211.397 41.2747 211.638 41.2422 211.859H41.3496C41.571 211.482 41.8509 211.166 42.1895 210.912C42.5345 210.652 42.9251 210.456 43.3613 210.326C43.7975 210.189 44.2598 210.121 44.748 210.121C45.6074 210.121 46.3236 210.258 46.8965 210.531C47.4759 210.805 47.9089 211.228 48.1953 211.801C48.4883 212.374 48.6348 213.116 48.6348 214.027V221H47.0332V214.135C47.0332 213.243 46.8281 212.576 46.418 212.133C46.0143 211.69 45.3926 211.469 44.5527 211.469C43.7585 211.469 43.1237 211.622 42.6484 211.928C42.1797 212.227 41.8411 212.67 41.6328 213.256C41.431 213.842 41.3301 214.558 41.3301 215.404V221H39.709V205.805H41.3301ZM55.4316 219.867C55.6986 219.867 55.972 219.844 56.252 219.799C56.5319 219.753 56.7598 219.698 56.9355 219.633V220.893C56.7467 220.977 56.4831 221.049 56.1445 221.107C55.8125 221.166 55.487 221.195 55.168 221.195C54.6016 221.195 54.0872 221.098 53.625 220.902C53.1628 220.701 52.7917 220.362 52.5117 219.887C52.2383 219.411 52.1016 218.754 52.1016 217.914V211.566H50.5781V210.775L52.1113 210.141L52.7559 207.816H53.7324V210.297H56.8672V211.566H53.7324V217.865C53.7324 218.536 53.8854 219.037 54.1914 219.369C54.5039 219.701 54.9173 219.867 55.4316 219.867ZM70.7246 210.102C71.903 210.102 72.7917 210.411 73.3906 211.029C73.9896 211.641 74.2891 212.628 74.2891 213.988V221H72.6875V214.066C72.6875 213.201 72.4987 212.553 72.1211 212.123C71.75 211.687 71.1966 211.469 70.4609 211.469C69.4258 211.469 68.6738 211.768 68.2051 212.367C67.7363 212.966 67.502 213.848 67.502 215.014V221H65.8906V214.066C65.8906 213.487 65.806 213.005 65.6367 212.621C65.474 212.237 65.2266 211.951 64.8945 211.762C64.569 211.566 64.1556 211.469 63.6543 211.469C62.9447 211.469 62.375 211.615 61.9453 211.908C61.5156 212.201 61.2031 212.637 61.0078 213.217C60.819 213.79 60.7246 214.496 60.7246 215.336V221H59.1035V210.297H60.4121L60.6562 211.811H60.7441C60.959 211.439 61.2292 211.127 61.5547 210.873C61.8802 210.619 62.2448 210.427 62.6484 210.297C63.0521 210.167 63.4818 210.102 63.9375 210.102C64.7513 210.102 65.4316 210.255 65.9785 210.561C66.5319 210.86 66.9323 211.319 67.1797 211.938H67.2676C67.6191 211.319 68.1009 210.86 68.7129 210.561C69.3249 210.255 69.9954 210.102 70.7246 210.102ZM79.25 221H77.6191V205.805H79.25V221Z" fill="#212121"/>
<rect x="0.5" y="234.5" width="1099" height="17" rx="8.5" stroke="#212121"/>
<rect x="2" y="236" width="500" height="14" rx="7" fill="#09A494"/>
<rect x="0.5" y="302.5" width="267" height="75" rx="4.5" stroke="#9747FF" stroke-dasharray="10 5"/>
<rect x="159.5" y="322.5" width="88" height="35" rx="7.5" fill="#09A494"/>
<rect x="159.5" y="322.5" width="88" height="35" rx="7.5" stroke="#09A494"/>
<path d="M177.016 335.297H178.803L174.184 340.463L179.174 346H177.27L172.406 340.57V346H170.775V335.297H172.406V340.492L177.016 335.297ZM182.738 335.297V339.789H188.705V335.297H190.326V346H188.705V341.166H182.738V346H181.107V335.297H182.738ZM202.992 340.629C202.992 341.508 202.878 342.292 202.65 342.982C202.423 343.673 202.094 344.255 201.664 344.73C201.234 345.206 200.714 345.57 200.102 345.824C199.496 346.072 198.809 346.195 198.041 346.195C197.325 346.195 196.667 346.072 196.068 345.824C195.476 345.57 194.962 345.206 194.525 344.73C194.096 344.255 193.76 343.673 193.52 342.982C193.285 342.292 193.168 341.508 193.168 340.629C193.168 339.457 193.367 338.461 193.764 337.641C194.161 336.814 194.727 336.186 195.463 335.756C196.205 335.32 197.087 335.102 198.109 335.102C199.086 335.102 199.939 335.32 200.668 335.756C201.404 336.192 201.973 336.824 202.377 337.65C202.787 338.471 202.992 339.464 202.992 340.629ZM194.848 340.629C194.848 341.488 194.962 342.234 195.189 342.865C195.417 343.497 195.769 343.985 196.244 344.33C196.719 344.675 197.331 344.848 198.08 344.848C198.822 344.848 199.431 344.675 199.906 344.33C200.388 343.985 200.743 343.497 200.971 342.865C201.199 342.234 201.312 341.488 201.312 340.629C201.312 339.776 201.199 339.04 200.971 338.422C200.743 337.797 200.391 337.315 199.916 336.977C199.441 336.638 198.826 336.469 198.07 336.469C196.957 336.469 196.14 336.837 195.619 337.572C195.105 338.308 194.848 339.327 194.848 340.629ZM214.76 335.297V346H213.129V336.693H207.426V346H205.795V335.297H214.76ZM224.438 335.297H226.225L221.605 340.463L226.596 346H224.691L219.828 340.57V346H218.197V335.297H219.828V340.492L224.438 335.297ZM232.533 335.121C233.809 335.121 234.757 335.408 235.375 335.98C235.993 336.553 236.303 337.468 236.303 338.725V346H235.121L234.809 344.418H234.73C234.431 344.809 234.118 345.137 233.793 345.404C233.467 345.665 233.09 345.863 232.66 346C232.237 346.13 231.716 346.195 231.098 346.195C230.447 346.195 229.867 346.081 229.359 345.854C228.858 345.626 228.461 345.281 228.168 344.818C227.882 344.356 227.738 343.77 227.738 343.061C227.738 341.993 228.161 341.173 229.008 340.6C229.854 340.027 231.143 339.714 232.875 339.662L234.721 339.584V338.93C234.721 338.005 234.522 337.357 234.125 336.986C233.728 336.615 233.168 336.43 232.445 336.43C231.885 336.43 231.352 336.511 230.844 336.674C230.336 336.837 229.854 337.029 229.398 337.25L228.9 336.02C229.382 335.772 229.936 335.561 230.561 335.385C231.186 335.209 231.843 335.121 232.533 335.121ZM234.701 340.727L233.07 340.795C231.736 340.847 230.795 341.065 230.248 341.449C229.701 341.833 229.428 342.377 229.428 343.08C229.428 343.692 229.613 344.145 229.984 344.438C230.355 344.73 230.847 344.877 231.459 344.877C232.41 344.877 233.188 344.613 233.793 344.086C234.398 343.559 234.701 342.768 234.701 341.713V340.727Z" fill="white"/>
<rect x="20.5" y="322.5" width="88" height="35" rx="7.5" stroke="#09A494"/>
<path d="M38.0156 335.297H39.8027L35.1836 340.463L40.1738 346H38.2695L33.4062 340.57V346H31.7754V335.297H33.4062V340.492L38.0156 335.297ZM43.7383 335.297V339.789H49.7051V335.297H51.3262V346H49.7051V341.166H43.7383V346H42.1074V335.297H43.7383ZM63.9922 340.629C63.9922 341.508 63.8783 342.292 63.6504 342.982C63.4225 343.673 63.0938 344.255 62.6641 344.73C62.2344 345.206 61.7135 345.57 61.1016 345.824C60.4961 346.072 59.8092 346.195 59.041 346.195C58.3249 346.195 57.6673 346.072 57.0684 345.824C56.4759 345.57 55.9616 345.206 55.5254 344.73C55.0957 344.255 54.7604 343.673 54.5195 342.982C54.2852 342.292 54.168 341.508 54.168 340.629C54.168 339.457 54.3665 338.461 54.7637 337.641C55.1608 336.814 55.7272 336.186 56.4629 335.756C57.2051 335.32 58.0872 335.102 59.1094 335.102C60.0859 335.102 60.9388 335.32 61.668 335.756C62.4036 336.192 62.9733 336.824 63.377 337.65C63.7871 338.471 63.9922 339.464 63.9922 340.629ZM55.8477 340.629C55.8477 341.488 55.9616 342.234 56.1895 342.865C56.4173 343.497 56.7689 343.985 57.2441 344.33C57.7194 344.675 58.3314 344.848 59.0801 344.848C59.8223 344.848 60.431 344.675 60.9062 344.33C61.388 343.985 61.7428 343.497 61.9707 342.865C62.1986 342.234 62.3125 341.488 62.3125 340.629C62.3125 339.776 62.1986 339.04 61.9707 338.422C61.7428 337.797 61.3913 337.315 60.916 336.977C60.4408 336.638 59.8255 336.469 59.0703 336.469C57.957 336.469 57.14 336.837 56.6191 337.572C56.1048 338.308 55.8477 339.327 55.8477 340.629ZM75.7598 335.297V346H74.1289V336.693H68.4258V346H66.7949V335.297H75.7598ZM85.4375 335.297H87.2246L82.6055 340.463L87.5957 346H85.6914L80.8281 340.57V346H79.1973V335.297H80.8281V340.492L85.4375 335.297ZM93.5332 335.121C94.8092 335.121 95.7565 335.408 96.375 335.98C96.9935 336.553 97.3027 337.468 97.3027 338.725V346H96.1211L95.8086 344.418H95.7305C95.431 344.809 95.1185 345.137 94.793 345.404C94.4674 345.665 94.0898 345.863 93.6602 346C93.237 346.13 92.7161 346.195 92.0977 346.195C91.4466 346.195 90.8672 346.081 90.3594 345.854C89.8581 345.626 89.4609 345.281 89.168 344.818C88.8815 344.356 88.7383 343.77 88.7383 343.061C88.7383 341.993 89.1615 341.173 90.0078 340.6C90.8542 340.027 92.1432 339.714 93.875 339.662L95.7207 339.584V338.93C95.7207 338.005 95.5221 337.357 95.125 336.986C94.7279 336.615 94.168 336.43 93.4453 336.43C92.8854 336.43 92.3516 336.511 91.8438 336.674C91.3359 336.837 90.8542 337.029 90.3984 337.25L89.9004 336.02C90.3822 335.772 90.9355 335.561 91.5605 335.385C92.1855 335.209 92.8431 335.121 93.5332 335.121ZM95.7012 340.727L94.0703 340.795C92.7357 340.847 91.7949 341.065 91.248 341.449C90.7012 341.833 90.4277 342.377 90.4277 343.08C90.4277 343.692 90.6133 344.145 90.9844 344.438C91.3555 344.73 91.847 344.877 92.459 344.877C93.4095 344.877 94.1875 344.613 94.793 344.086C95.3984 343.559 95.7012 342.768 95.7012 341.713V340.727Z" fill="#09A494"/>
<rect x="0.5" y="428.5" width="189" height="89" rx="4.5" stroke="#9747FF" stroke-dasharray="10 5"/>
<rect x="120.5" y="448.5" width="49" height="49" rx="24.5" fill="#09A494"/>
<rect x="120.5" y="448.5" width="49" height="49" rx="24.5" stroke="#09A494"/>
<path d="M144.5 461C137.608 461 132 466.608 132 473.5C132 480.392 137.608 486 144.5 486C151.392 486 157 480.392 157 473.5C157 466.608 151.392 461 144.5 461ZM144.5 462.875C150.379 462.875 155.125 467.621 155.125 473.5C155.125 478.291 151.973 482.327 147.625 483.657V480.46C147.625 479.267 146.937 478.243 145.943 477.733C146.91 477.548 147.807 477.182 148.561 476.664C149.315 476.146 149.904 475.491 150.279 474.755C150.653 474.018 150.803 473.221 150.715 472.429C150.627 471.637 150.304 470.873 149.773 470.2C150.051 469.347 150.36 467.85 149.625 466.673C148.206 466.673 147.29 467.645 146.854 468.25C146.107 468.004 145.307 467.877 144.5 467.875C143.692 467.876 142.892 468.002 142.144 468.246C141.706 467.641 140.791 466.673 139.375 466.673C138.531 468.024 139.053 469.478 139.333 470.071C138.766 470.74 138.411 471.51 138.297 472.313C138.184 473.116 138.315 473.93 138.681 474.683C139.047 475.437 139.635 476.109 140.396 476.641C141.157 477.172 142.068 477.549 143.051 477.737C142.235 478.158 141.623 478.921 141.436 479.848H140.615C139.804 479.848 139.489 479.518 139.051 478.963C138.618 478.407 138.153 478.034 137.594 477.879C137.293 477.847 137.09 478.076 137.353 478.279C138.24 478.883 138.301 479.871 138.656 480.518C138.98 481.1 139.644 481.625 140.394 481.625H141.375V483.657C137.027 482.327 133.875 478.291 133.875 473.5C133.875 467.621 138.621 462.875 144.5 462.875Z" fill="black"/>
<rect x="20.5" y="448.5" width="49" height="49" rx="24.5" stroke="#09A494"/>
<path d="M44.5 461C37.6075 461 32 466.608 32 473.5C32 480.392 37.6075 486 44.5 486C51.3925 486 57 480.392 57 473.5C57 466.608 51.3925 461 44.5 461ZM44.5 462.875C50.3791 462.875 55.125 467.621 55.125 473.5C55.125 478.291 51.9731 482.327 47.625 483.657V480.46C47.625 479.267 46.9371 478.243 45.9429 477.733C46.9096 477.548 47.8072 477.182 48.5612 476.664C49.3153 476.146 49.904 475.491 50.2785 474.755C50.6531 474.018 50.8026 473.221 50.7148 472.429C50.6269 471.637 50.3042 470.873 49.7734 470.2C50.0507 469.347 50.3603 467.85 49.6245 466.673C48.2058 466.673 47.2904 467.645 46.8535 468.25C46.1066 468.004 45.3074 467.877 44.5 467.875C43.6921 467.876 42.892 468.002 42.144 468.246C41.7061 467.641 40.7914 466.673 39.3755 466.673C38.5311 468.024 39.0531 469.478 39.3328 470.071C38.7661 470.74 38.4108 471.51 38.2973 472.313C38.1837 473.116 38.3154 473.93 38.681 474.683C39.0465 475.437 39.6351 476.109 40.3962 476.641C41.1573 477.172 42.0683 477.549 43.051 477.737C42.2347 478.158 41.6233 478.921 41.436 479.848H40.6145C39.8039 479.848 39.4889 479.518 39.0508 478.963C38.6183 478.407 38.1532 478.034 37.5945 477.879C37.2932 477.847 37.0903 478.076 37.3528 478.279C38.2397 478.883 38.3009 479.871 38.6565 480.518C38.9802 481.1 39.6436 481.625 40.3936 481.625H41.375V483.657C37.0269 482.327 33.875 478.291 33.875 473.5C33.875 467.621 38.6209 462.875 44.5 462.875Z" fill="black"/>
<rect x="0.5" y="568.5" width="495" height="69" rx="4.5" stroke="#9747FF" stroke-dasharray="10 5"/>
<path d="M47.3633 592.453H22.6367C21.1858 592.453 20 593.634 20 595.09V610.91C20 612.367 21.1866 613.547 22.6367 613.547H47.3633C48.8142 613.547 50 612.366 50 610.91V595.09C50 593.633 48.8136 592.453 47.3633 592.453ZM46.9584 594.211L35.6811 605.525C35.3375 605.87 34.6627 605.87 34.3189 605.525L23.0416 594.211H46.9584ZM21.7578 610.587V595.413L29.3202 603L21.7578 610.587ZM23.0416 611.789L30.5612 604.245L33.074 606.766C34.1037 607.799 35.8967 607.799 36.9261 606.766L39.4389 604.245L46.9584 611.789H23.0416ZM48.2422 610.587L40.6798 603L48.2422 595.413V610.587Z" fill="#212121"/>
<path d="M68.3672 603.285H72.3906V604.613H68.3672V608.754H67.0293V604.613H63.0059V603.285H67.0293V599.125H68.3672V603.285ZM76.2773 611L82.1367 598.207H74.3535V596.723H83.875V597.973L78.0547 611H76.2773ZM100.447 602.807C100.447 603.673 100.385 604.516 100.262 605.336C100.145 606.156 99.9395 606.921 99.6465 607.631C99.36 608.34 98.9694 608.962 98.4746 609.496C97.9798 610.03 97.3581 610.45 96.6094 610.756C95.8672 611.055 94.9785 611.205 93.9434 611.205C93.6634 611.205 93.3444 611.186 92.9863 611.146C92.6283 611.114 92.3353 611.065 92.1074 611V609.594C92.3483 609.678 92.6315 609.747 92.957 609.799C93.2826 609.844 93.6016 609.867 93.9141 609.867C95.1315 609.867 96.0885 609.607 96.7852 609.086C97.4818 608.559 97.9831 607.846 98.2891 606.947C98.5951 606.042 98.7676 605.027 98.8066 603.9H98.6895C98.4941 604.213 98.237 604.503 97.918 604.77C97.6055 605.03 97.2246 605.242 96.7754 605.404C96.3262 605.561 95.8021 605.639 95.2031 605.639C94.3763 605.639 93.6536 605.469 93.0352 605.131C92.4232 604.792 91.9447 604.301 91.5996 603.656C91.2611 603.012 91.0918 602.234 91.0918 601.322C91.0918 600.339 91.2773 599.49 91.6484 598.773C92.026 598.051 92.5534 597.494 93.2305 597.104C93.9076 596.713 94.7051 596.518 95.623 596.518C96.3262 596.518 96.9707 596.651 97.5566 596.918C98.1426 597.185 98.6504 597.585 99.0801 598.119C99.5163 598.646 99.8516 599.301 100.086 600.082C100.327 600.863 100.447 601.771 100.447 602.807ZM95.623 597.895C94.7572 597.895 94.054 598.178 93.5137 598.744C92.9798 599.311 92.7129 600.163 92.7129 601.303C92.7129 602.247 92.944 602.992 93.4062 603.539C93.8685 604.086 94.5814 604.359 95.5449 604.359C96.209 604.359 96.7819 604.226 97.2637 603.959C97.752 603.692 98.1263 603.354 98.3867 602.943C98.6536 602.533 98.7871 602.113 98.7871 601.684C98.7871 601.254 98.722 600.818 98.5918 600.375C98.4681 599.932 98.276 599.525 98.0156 599.154C97.7552 598.777 97.4264 598.474 97.0293 598.246C96.6322 598.012 96.1634 597.895 95.623 597.895ZM111.893 602.807C111.893 603.673 111.831 604.516 111.707 605.336C111.59 606.156 111.385 606.921 111.092 607.631C110.805 608.34 110.415 608.962 109.92 609.496C109.425 610.03 108.803 610.45 108.055 610.756C107.312 611.055 106.424 611.205 105.389 611.205C105.109 611.205 104.79 611.186 104.432 611.146C104.074 611.114 103.781 611.065 103.553 611V609.594C103.794 609.678 104.077 609.747 104.402 609.799C104.728 609.844 105.047 609.867 105.359 609.867C106.577 609.867 107.534 609.607 108.23 609.086C108.927 608.559 109.428 607.846 109.734 606.947C110.04 606.042 110.213 605.027 110.252 603.9H110.135C109.939 604.213 109.682 604.503 109.363 604.77C109.051 605.03 108.67 605.242 108.221 605.404C107.771 605.561 107.247 605.639 106.648 605.639C105.822 605.639 105.099 605.469 104.48 605.131C103.868 604.792 103.39 604.301 103.045 603.656C102.706 603.012 102.537 602.234 102.537 601.322C102.537 600.339 102.723 599.49 103.094 598.773C103.471 598.051 103.999 597.494 104.676 597.104C105.353 596.713 106.15 596.518 107.068 596.518C107.771 596.518 108.416 596.651 109.002 596.918C109.588 597.185 110.096 597.585 110.525 598.119C110.962 598.646 111.297 599.301 111.531 600.082C111.772 600.863 111.893 601.771 111.893 602.807ZM107.068 597.895C106.202 597.895 105.499 598.178 104.959 598.744C104.425 599.311 104.158 600.163 104.158 601.303C104.158 602.247 104.389 602.992 104.852 603.539C105.314 604.086 106.027 604.359 106.99 604.359C107.654 604.359 108.227 604.226 108.709 603.959C109.197 603.692 109.572 603.354 109.832 602.943C110.099 602.533 110.232 602.113 110.232 601.684C110.232 601.254 110.167 600.818 110.037 600.375C109.913 599.932 109.721 599.525 109.461 599.154C109.201 598.777 108.872 598.474 108.475 598.246C108.077 598.012 107.609 597.895 107.068 597.895ZM123.338 602.807C123.338 603.673 123.276 604.516 123.152 605.336C123.035 606.156 122.83 606.921 122.537 607.631C122.251 608.34 121.86 608.962 121.365 609.496C120.87 610.03 120.249 610.45 119.5 610.756C118.758 611.055 117.869 611.205 116.834 611.205C116.554 611.205 116.235 611.186 115.877 611.146C115.519 611.114 115.226 611.065 114.998 611V609.594C115.239 609.678 115.522 609.747 115.848 609.799C116.173 609.844 116.492 609.867 116.805 609.867C118.022 609.867 118.979 609.607 119.676 609.086C120.372 608.559 120.874 607.846 121.18 606.947C121.486 606.042 121.658 605.027 121.697 603.9H121.58C121.385 604.213 121.128 604.503 120.809 604.77C120.496 605.03 120.115 605.242 119.666 605.404C119.217 605.561 118.693 605.639 118.094 605.639C117.267 605.639 116.544 605.469 115.926 605.131C115.314 604.792 114.835 604.301 114.49 603.656C114.152 603.012 113.982 602.234 113.982 601.322C113.982 600.339 114.168 599.49 114.539 598.773C114.917 598.051 115.444 597.494 116.121 597.104C116.798 596.713 117.596 596.518 118.514 596.518C119.217 596.518 119.861 596.651 120.447 596.918C121.033 597.185 121.541 597.585 121.971 598.119C122.407 598.646 122.742 599.301 122.977 600.082C123.217 600.863 123.338 601.771 123.338 602.807ZM118.514 597.895C117.648 597.895 116.945 598.178 116.404 598.744C115.87 599.311 115.604 600.163 115.604 601.303C115.604 602.247 115.835 602.992 116.297 603.539C116.759 604.086 117.472 604.359 118.436 604.359C119.1 604.359 119.673 604.226 120.154 603.959C120.643 603.692 121.017 603.354 121.277 602.943C121.544 602.533 121.678 602.113 121.678 601.684C121.678 601.254 121.613 600.818 121.482 600.375C121.359 599.932 121.167 599.525 120.906 599.154C120.646 598.777 120.317 598.474 119.92 598.246C119.523 598.012 119.054 597.895 118.514 597.895ZM136.639 611H135.057V600.883C135.057 600.499 135.057 600.17 135.057 599.896C135.063 599.617 135.07 599.363 135.076 599.135C135.089 598.9 135.105 598.663 135.125 598.422C134.923 598.63 134.734 598.809 134.559 598.959C134.383 599.102 134.165 599.281 133.904 599.496L132.273 600.805L131.424 599.701L135.291 596.723H136.639V611ZM151.404 611H142.049V609.643L145.867 605.766C146.577 605.049 147.173 604.411 147.654 603.852C148.143 603.292 148.514 602.742 148.768 602.201C149.021 601.654 149.148 601.055 149.148 600.404C149.148 599.597 148.908 598.982 148.426 598.559C147.951 598.129 147.322 597.914 146.541 597.914C145.857 597.914 145.252 598.031 144.725 598.266C144.197 598.5 143.657 598.832 143.104 599.262L142.234 598.168C142.612 597.849 143.022 597.566 143.465 597.318C143.914 597.071 144.393 596.876 144.9 596.732C145.415 596.589 145.962 596.518 146.541 596.518C147.42 596.518 148.178 596.671 148.816 596.977C149.454 597.283 149.946 597.719 150.291 598.285C150.643 598.852 150.818 599.525 150.818 600.307C150.818 601.062 150.669 601.765 150.369 602.416C150.07 603.061 149.65 603.702 149.109 604.34C148.569 604.971 147.938 605.642 147.215 606.352L144.109 609.447V609.516H151.404V611ZM162.322 600.053C162.322 600.691 162.199 601.244 161.951 601.713C161.704 602.182 161.359 602.566 160.916 602.865C160.473 603.158 159.952 603.363 159.354 603.48V603.559C160.486 603.702 161.336 604.066 161.902 604.652C162.475 605.238 162.762 606.007 162.762 606.957C162.762 607.784 162.566 608.516 162.176 609.154C161.792 609.792 161.199 610.294 160.398 610.658C159.604 611.016 158.585 611.195 157.342 611.195C156.587 611.195 155.887 611.133 155.242 611.01C154.604 610.893 153.992 610.694 153.406 610.414V608.891C153.999 609.184 154.643 609.415 155.34 609.584C156.036 609.747 156.71 609.828 157.361 609.828C158.663 609.828 159.604 609.571 160.184 609.057C160.763 608.536 161.053 607.826 161.053 606.928C161.053 606.309 160.89 605.811 160.564 605.434C160.245 605.049 159.783 604.77 159.178 604.594C158.579 604.411 157.856 604.32 157.01 604.32H155.584V602.934H157.02C157.794 602.934 158.452 602.82 158.992 602.592C159.533 602.364 159.943 602.045 160.223 601.635C160.509 601.218 160.652 600.727 160.652 600.16C160.652 599.438 160.411 598.881 159.93 598.49C159.448 598.093 158.794 597.895 157.967 597.895C157.459 597.895 156.997 597.947 156.58 598.051C156.163 598.155 155.773 598.298 155.408 598.48C155.044 598.663 154.679 598.874 154.314 599.115L153.494 598.002C154.015 597.598 154.65 597.25 155.398 596.957C156.147 596.664 156.997 596.518 157.947 596.518C159.406 596.518 160.499 596.85 161.229 597.514C161.958 598.178 162.322 599.024 162.322 600.053ZM164.754 606.352V604.906H169.598V606.352H164.754ZM181.453 607.689H179.314V611H177.732V607.689H170.828V606.322L177.625 596.645H179.314V606.225H181.453V607.689ZM177.732 606.225V601.557C177.732 601.199 177.736 600.876 177.742 600.59C177.749 600.297 177.758 600.027 177.771 599.779C177.785 599.525 177.794 599.285 177.801 599.057C177.814 598.829 177.824 598.604 177.83 598.383H177.752C177.628 598.643 177.485 598.92 177.322 599.213C177.166 599.499 177.007 599.757 176.844 599.984L172.439 606.225H177.732ZM187.342 602.27C188.312 602.27 189.155 602.436 189.871 602.768C190.587 603.093 191.141 603.568 191.531 604.193C191.928 604.818 192.127 605.577 192.127 606.469C192.127 607.445 191.915 608.288 191.492 608.998C191.069 609.701 190.46 610.245 189.666 610.629C188.872 611.007 187.921 611.195 186.814 611.195C186.072 611.195 185.382 611.13 184.744 611C184.106 610.87 183.569 610.674 183.133 610.414V608.871C183.608 609.158 184.184 609.385 184.861 609.555C185.538 609.724 186.196 609.809 186.834 609.809C187.557 609.809 188.188 609.695 188.729 609.467C189.275 609.232 189.699 608.881 189.998 608.412C190.304 607.937 190.457 607.341 190.457 606.625C190.457 605.674 190.164 604.942 189.578 604.428C188.999 603.907 188.081 603.646 186.824 603.646C186.421 603.646 185.978 603.679 185.496 603.744C185.014 603.809 184.617 603.881 184.305 603.959L183.484 603.422L184.031 596.723H191.131V598.207H185.418L185.057 602.514C185.304 602.462 185.623 602.41 186.014 602.357C186.404 602.299 186.847 602.27 187.342 602.27ZM194.09 606.352V604.906H198.934V606.352H194.09ZM200.867 604.896C200.867 604.037 200.926 603.197 201.043 602.377C201.167 601.557 201.372 600.795 201.658 600.092C201.945 599.382 202.335 598.76 202.83 598.227C203.325 597.693 203.94 597.276 204.676 596.977C205.418 596.671 206.307 596.518 207.342 596.518C207.635 596.518 207.951 596.534 208.289 596.566C208.628 596.592 208.908 596.638 209.129 596.703V598.1C208.888 598.015 208.611 597.953 208.299 597.914C207.993 597.875 207.684 597.855 207.371 597.855C206.16 597.855 205.206 598.119 204.51 598.646C203.82 599.174 203.322 599.89 203.016 600.795C202.71 601.693 202.534 602.706 202.488 603.832H202.596C202.798 603.507 203.055 603.214 203.367 602.953C203.68 602.686 204.057 602.475 204.5 602.318C204.949 602.162 205.47 602.084 206.062 602.084C206.896 602.084 207.622 602.253 208.24 602.592C208.865 602.93 209.347 603.422 209.686 604.066C210.031 604.711 210.203 605.492 210.203 606.41C210.203 607.393 210.021 608.243 209.656 608.959C209.292 609.675 208.771 610.229 208.094 610.619C207.423 611.003 206.622 611.195 205.691 611.195C204.995 611.195 204.354 611.062 203.768 610.795C203.182 610.528 202.671 610.131 202.234 609.604C201.805 609.076 201.469 608.422 201.229 607.641C200.988 606.853 200.867 605.938 200.867 604.896ZM205.672 609.828C206.557 609.828 207.267 609.545 207.801 608.979C208.335 608.412 208.602 607.556 208.602 606.41C208.602 605.473 208.364 604.73 207.889 604.184C207.413 603.637 206.697 603.363 205.74 603.363C205.089 603.363 204.523 603.5 204.041 603.773C203.559 604.04 203.185 604.379 202.918 604.789C202.651 605.199 202.518 605.616 202.518 606.039C202.518 606.469 202.579 606.905 202.703 607.348C202.833 607.79 203.029 608.201 203.289 608.578C203.549 608.956 203.878 609.258 204.275 609.486C204.673 609.714 205.138 609.828 205.672 609.828ZM214.012 611L219.871 598.207H212.088V596.723H221.609V597.973L215.789 611H214.012Z" fill="#212121"/>
<path d="M300.363 592.453H275.637C274.186 592.453 273 593.634 273 595.09V610.91C273 612.367 274.187 613.547 275.637 613.547H300.363C301.814 613.547 303 612.366 303 610.91V595.09C303 593.633 301.814 592.453 300.363 592.453ZM299.958 594.211L288.681 605.525C288.337 605.87 287.663 605.87 287.319 605.525L276.042 594.211H299.958ZM274.758 610.587V595.413L282.32 603L274.758 610.587ZM276.042 611.789L283.561 604.245L286.074 606.766C287.104 607.799 288.897 607.799 289.926 606.766L292.439 604.245L299.958 611.789H276.042ZM301.242 610.587L293.68 603L301.242 595.413V610.587Z" fill="#212121"/>
<path d="M321.367 603.285H325.391V604.613H321.367V608.754H320.029V604.613H316.006V603.285H320.029V599.125H321.367V603.285ZM329.277 611L335.137 598.207H327.354V596.723H336.875V597.973L331.055 611H329.277ZM353.447 602.807C353.447 603.673 353.385 604.516 353.262 605.336C353.145 606.156 352.939 606.921 352.646 607.631C352.36 608.34 351.969 608.962 351.475 609.496C350.98 610.03 350.358 610.45 349.609 610.756C348.867 611.055 347.979 611.205 346.943 611.205C346.663 611.205 346.344 611.186 345.986 611.146C345.628 611.114 345.335 611.065 345.107 611V609.594C345.348 609.678 345.632 609.747 345.957 609.799C346.283 609.844 346.602 609.867 346.914 609.867C348.132 609.867 349.089 609.607 349.785 609.086C350.482 608.559 350.983 607.846 351.289 606.947C351.595 606.042 351.768 605.027 351.807 603.9H351.689C351.494 604.213 351.237 604.503 350.918 604.77C350.605 605.03 350.225 605.242 349.775 605.404C349.326 605.561 348.802 605.639 348.203 605.639C347.376 605.639 346.654 605.469 346.035 605.131C345.423 604.792 344.945 604.301 344.6 603.656C344.261 603.012 344.092 602.234 344.092 601.322C344.092 600.339 344.277 599.49 344.648 598.773C345.026 598.051 345.553 597.494 346.23 597.104C346.908 596.713 347.705 596.518 348.623 596.518C349.326 596.518 349.971 596.651 350.557 596.918C351.143 597.185 351.65 597.585 352.08 598.119C352.516 598.646 352.852 599.301 353.086 600.082C353.327 600.863 353.447 601.771 353.447 602.807ZM348.623 597.895C347.757 597.895 347.054 598.178 346.514 598.744C345.98 599.311 345.713 600.163 345.713 601.303C345.713 602.247 345.944 602.992 346.406 603.539C346.868 604.086 347.581 604.359 348.545 604.359C349.209 604.359 349.782 604.226 350.264 603.959C350.752 603.692 351.126 603.354 351.387 602.943C351.654 602.533 351.787 602.113 351.787 601.684C351.787 601.254 351.722 600.818 351.592 600.375C351.468 599.932 351.276 599.525 351.016 599.154C350.755 598.777 350.426 598.474 350.029 598.246C349.632 598.012 349.163 597.895 348.623 597.895ZM364.893 602.807C364.893 603.673 364.831 604.516 364.707 605.336C364.59 606.156 364.385 606.921 364.092 607.631C363.805 608.34 363.415 608.962 362.92 609.496C362.425 610.03 361.803 610.45 361.055 610.756C360.312 611.055 359.424 611.205 358.389 611.205C358.109 611.205 357.79 611.186 357.432 611.146C357.074 611.114 356.781 611.065 356.553 611V609.594C356.794 609.678 357.077 609.747 357.402 609.799C357.728 609.844 358.047 609.867 358.359 609.867C359.577 609.867 360.534 609.607 361.23 609.086C361.927 608.559 362.428 607.846 362.734 606.947C363.04 606.042 363.213 605.027 363.252 603.9H363.135C362.939 604.213 362.682 604.503 362.363 604.77C362.051 605.03 361.67 605.242 361.221 605.404C360.771 605.561 360.247 605.639 359.648 605.639C358.822 605.639 358.099 605.469 357.48 605.131C356.868 604.792 356.39 604.301 356.045 603.656C355.706 603.012 355.537 602.234 355.537 601.322C355.537 600.339 355.723 599.49 356.094 598.773C356.471 598.051 356.999 597.494 357.676 597.104C358.353 596.713 359.15 596.518 360.068 596.518C360.771 596.518 361.416 596.651 362.002 596.918C362.588 597.185 363.096 597.585 363.525 598.119C363.962 598.646 364.297 599.301 364.531 600.082C364.772 600.863 364.893 601.771 364.893 602.807ZM360.068 597.895C359.202 597.895 358.499 598.178 357.959 598.744C357.425 599.311 357.158 600.163 357.158 601.303C357.158 602.247 357.389 602.992 357.852 603.539C358.314 604.086 359.027 604.359 359.99 604.359C360.654 604.359 361.227 604.226 361.709 603.959C362.197 603.692 362.572 603.354 362.832 602.943C363.099 602.533 363.232 602.113 363.232 601.684C363.232 601.254 363.167 600.818 363.037 600.375C362.913 599.932 362.721 599.525 362.461 599.154C362.201 598.777 361.872 598.474 361.475 598.246C361.077 598.012 360.609 597.895 360.068 597.895ZM376.338 602.807C376.338 603.673 376.276 604.516 376.152 605.336C376.035 606.156 375.83 606.921 375.537 607.631C375.251 608.34 374.86 608.962 374.365 609.496C373.87 610.03 373.249 610.45 372.5 610.756C371.758 611.055 370.869 611.205 369.834 611.205C369.554 611.205 369.235 611.186 368.877 611.146C368.519 611.114 368.226 611.065 367.998 611V609.594C368.239 609.678 368.522 609.747 368.848 609.799C369.173 609.844 369.492 609.867 369.805 609.867C371.022 609.867 371.979 609.607 372.676 609.086C373.372 608.559 373.874 607.846 374.18 606.947C374.486 606.042 374.658 605.027 374.697 603.9H374.58C374.385 604.213 374.128 604.503 373.809 604.77C373.496 605.03 373.115 605.242 372.666 605.404C372.217 605.561 371.693 605.639 371.094 605.639C370.267 605.639 369.544 605.469 368.926 605.131C368.314 604.792 367.835 604.301 367.49 603.656C367.152 603.012 366.982 602.234 366.982 601.322C366.982 600.339 367.168 599.49 367.539 598.773C367.917 598.051 368.444 597.494 369.121 597.104C369.798 596.713 370.596 596.518 371.514 596.518C372.217 596.518 372.861 596.651 373.447 596.918C374.033 597.185 374.541 597.585 374.971 598.119C375.407 598.646 375.742 599.301 375.977 600.082C376.217 600.863 376.338 601.771 376.338 602.807ZM371.514 597.895C370.648 597.895 369.945 598.178 369.404 598.744C368.87 599.311 368.604 600.163 368.604 601.303C368.604 602.247 368.835 602.992 369.297 603.539C369.759 604.086 370.472 604.359 371.436 604.359C372.1 604.359 372.673 604.226 373.154 603.959C373.643 603.692 374.017 603.354 374.277 602.943C374.544 602.533 374.678 602.113 374.678 601.684C374.678 601.254 374.613 600.818 374.482 600.375C374.359 599.932 374.167 599.525 373.906 599.154C373.646 598.777 373.317 598.474 372.92 598.246C372.523 598.012 372.054 597.895 371.514 597.895ZM389.639 611H388.057V600.883C388.057 600.499 388.057 600.17 388.057 599.896C388.063 599.617 388.07 599.363 388.076 599.135C388.089 598.9 388.105 598.663 388.125 598.422C387.923 598.63 387.734 598.809 387.559 598.959C387.383 599.102 387.165 599.281 386.904 599.496L385.273 600.805L384.424 599.701L388.291 596.723H389.639V611ZM404.404 611H395.049V609.643L398.867 605.766C399.577 605.049 400.173 604.411 400.654 603.852C401.143 603.292 401.514 602.742 401.768 602.201C402.021 601.654 402.148 601.055 402.148 600.404C402.148 599.597 401.908 598.982 401.426 598.559C400.951 598.129 400.322 597.914 399.541 597.914C398.857 597.914 398.252 598.031 397.725 598.266C397.197 598.5 396.657 598.832 396.104 599.262L395.234 598.168C395.612 597.849 396.022 597.566 396.465 597.318C396.914 597.071 397.393 596.876 397.9 596.732C398.415 596.589 398.962 596.518 399.541 596.518C400.42 596.518 401.178 596.671 401.816 596.977C402.454 597.283 402.946 597.719 403.291 598.285C403.643 598.852 403.818 599.525 403.818 600.307C403.818 601.062 403.669 601.765 403.369 602.416C403.07 603.061 402.65 603.702 402.109 604.34C401.569 604.971 400.938 605.642 400.215 606.352L397.109 609.447V609.516H404.404V611ZM415.322 600.053C415.322 600.691 415.199 601.244 414.951 601.713C414.704 602.182 414.359 602.566 413.916 602.865C413.473 603.158 412.952 603.363 412.354 603.48V603.559C413.486 603.702 414.336 604.066 414.902 604.652C415.475 605.238 415.762 606.007 415.762 606.957C415.762 607.784 415.566 608.516 415.176 609.154C414.792 609.792 414.199 610.294 413.398 610.658C412.604 611.016 411.585 611.195 410.342 611.195C409.587 611.195 408.887 611.133 408.242 611.01C407.604 610.893 406.992 610.694 406.406 610.414V608.891C406.999 609.184 407.643 609.415 408.34 609.584C409.036 609.747 409.71 609.828 410.361 609.828C411.663 609.828 412.604 609.571 413.184 609.057C413.763 608.536 414.053 607.826 414.053 606.928C414.053 606.309 413.89 605.811 413.564 605.434C413.245 605.049 412.783 604.77 412.178 604.594C411.579 604.411 410.856 604.32 410.01 604.32H408.584V602.934H410.02C410.794 602.934 411.452 602.82 411.992 602.592C412.533 602.364 412.943 602.045 413.223 601.635C413.509 601.218 413.652 600.727 413.652 600.16C413.652 599.438 413.411 598.881 412.93 598.49C412.448 598.093 411.794 597.895 410.967 597.895C410.459 597.895 409.997 597.947 409.58 598.051C409.163 598.155 408.773 598.298 408.408 598.48C408.044 598.663 407.679 598.874 407.314 599.115L406.494 598.002C407.015 597.598 407.65 597.25 408.398 596.957C409.147 596.664 409.997 596.518 410.947 596.518C412.406 596.518 413.499 596.85 414.229 597.514C414.958 598.178 415.322 599.024 415.322 600.053ZM417.754 606.352V604.906H422.598V606.352H417.754ZM434.453 607.689H432.314V611H430.732V607.689H423.828V606.322L430.625 596.645H432.314V606.225H434.453V607.689ZM430.732 606.225V601.557C430.732 601.199 430.736 600.876 430.742 600.59C430.749 600.297 430.758 600.027 430.771 599.779C430.785 599.525 430.794 599.285 430.801 599.057C430.814 598.829 430.824 598.604 430.83 598.383H430.752C430.628 598.643 430.485 598.92 430.322 599.213C430.166 599.499 430.007 599.757 429.844 599.984L425.439 606.225H430.732ZM440.342 602.27C441.312 602.27 442.155 602.436 442.871 602.768C443.587 603.093 444.141 603.568 444.531 604.193C444.928 604.818 445.127 605.577 445.127 606.469C445.127 607.445 444.915 608.288 444.492 608.998C444.069 609.701 443.46 610.245 442.666 610.629C441.872 611.007 440.921 611.195 439.814 611.195C439.072 611.195 438.382 611.13 437.744 611C437.106 610.87 436.569 610.674 436.133 610.414V608.871C436.608 609.158 437.184 609.385 437.861 609.555C438.538 609.724 439.196 609.809 439.834 609.809C440.557 609.809 441.188 609.695 441.729 609.467C442.275 609.232 442.699 608.881 442.998 608.412C443.304 607.937 443.457 607.341 443.457 606.625C443.457 605.674 443.164 604.942 442.578 604.428C441.999 603.907 441.081 603.646 439.824 603.646C439.421 603.646 438.978 603.679 438.496 603.744C438.014 603.809 437.617 603.881 437.305 603.959L436.484 603.422L437.031 596.723H444.131V598.207H438.418L438.057 602.514C438.304 602.462 438.623 602.41 439.014 602.357C439.404 602.299 439.847 602.27 440.342 602.27ZM447.09 606.352V604.906H451.934V606.352H447.09ZM453.867 604.896C453.867 604.037 453.926 603.197 454.043 602.377C454.167 601.557 454.372 600.795 454.658 600.092C454.945 599.382 455.335 598.76 455.83 598.227C456.325 597.693 456.94 597.276 457.676 596.977C458.418 596.671 459.307 596.518 460.342 596.518C460.635 596.518 460.951 596.534 461.289 596.566C461.628 596.592 461.908 596.638 462.129 596.703V598.1C461.888 598.015 461.611 597.953 461.299 597.914C460.993 597.875 460.684 597.855 460.371 597.855C459.16 597.855 458.206 598.119 457.51 598.646C456.82 599.174 456.322 599.89 456.016 600.795C455.71 601.693 455.534 602.706 455.488 603.832H455.596C455.798 603.507 456.055 603.214 456.367 602.953C456.68 602.686 457.057 602.475 457.5 602.318C457.949 602.162 458.47 602.084 459.062 602.084C459.896 602.084 460.622 602.253 461.24 602.592C461.865 602.93 462.347 603.422 462.686 604.066C463.031 604.711 463.203 605.492 463.203 606.41C463.203 607.393 463.021 608.243 462.656 608.959C462.292 609.675 461.771 610.229 461.094 610.619C460.423 611.003 459.622 611.195 458.691 611.195C457.995 611.195 457.354 611.062 456.768 610.795C456.182 610.528 455.671 610.131 455.234 609.604C454.805 609.076 454.469 608.422 454.229 607.641C453.988 606.853 453.867 605.938 453.867 604.896ZM458.672 609.828C459.557 609.828 460.267 609.545 460.801 608.979C461.335 608.412 461.602 607.556 461.602 606.41C461.602 605.473 461.364 604.73 460.889 604.184C460.413 603.637 459.697 603.363 458.74 603.363C458.089 603.363 457.523 603.5 457.041 603.773C456.559 604.04 456.185 604.379 455.918 604.789C455.651 605.199 455.518 605.616 455.518 606.039C455.518 606.469 455.579 606.905 455.703 607.348C455.833 607.79 456.029 608.201 456.289 608.578C456.549 608.956 456.878 609.258 457.275 609.486C457.673 609.714 458.138 609.828 458.672 609.828ZM467.012 611L472.871 598.207H465.088V596.723H474.609V597.973L468.789 611H467.012Z" fill="#09A494"/>
</svg>
