<svg width="386" height="80" viewBox="0 0 386 80" fill="none" xmlns="http://www.w3.org/2000/svg">
<rect x="0.5" y="0.5" width="385" height="79" rx="4.5" stroke="#9747FF" stroke-dasharray="10 5"/>
<path d="M235.291 48V33.7227H245.926V48H244.285V35.1875H236.951V48H235.291ZM247.928 37.2969H249.666L252.029 43.5078C252.166 43.8724 252.293 44.224 252.41 44.5625C252.527 44.8945 252.632 45.2135 252.723 45.5195C252.814 45.8255 252.885 46.1217 252.938 46.4082H253.006C253.097 46.0827 253.227 45.6562 253.396 45.1289C253.566 44.5951 253.748 44.0514 253.943 43.498L256.18 37.2969H257.928L253.27 49.5723C253.022 50.2298 252.732 50.8027 252.4 51.291C252.075 51.7793 251.678 52.1536 251.209 52.4141C250.74 52.681 250.174 52.8145 249.51 52.8145C249.204 52.8145 248.934 52.7949 248.699 52.7559C248.465 52.7233 248.263 52.6842 248.094 52.6387V51.3398C248.237 51.3724 248.41 51.4017 248.611 51.4277C248.82 51.4538 249.035 51.4668 249.256 51.4668C249.66 51.4668 250.008 51.3887 250.301 51.2324C250.6 51.0827 250.857 50.8613 251.072 50.5684C251.287 50.2754 251.473 49.9271 251.629 49.5234L252.215 48.0195L247.928 37.2969ZM261.268 37.2969V41.7891H267.234V37.2969H268.855V48H267.234V43.166H261.268V48H259.637V37.2969H261.268ZM278.533 37.2969H280.32L275.701 42.4629L280.691 48H278.787L273.924 42.5703V48H272.293V37.2969H273.924V42.4922L278.533 37.2969ZM289.92 38.6738H286.395V48H284.793V38.6738H281.316V37.2969H289.92V38.6738ZM308.533 37.2969V48H307.068V41.0273C307.068 40.7409 307.075 40.4512 307.088 40.1582C307.107 39.8587 307.13 39.5592 307.156 39.2598H307.098L303.543 48H302.166L298.699 39.2598H298.641C298.66 39.5592 298.673 39.8587 298.68 40.1582C298.693 40.4512 298.699 40.7604 298.699 41.0859V48H297.225V37.2969H299.402L302.859 46.0469L306.365 37.2969H308.533ZM316.023 37.1016C316.935 37.1016 317.716 37.3034 318.367 37.707C319.018 38.1107 319.516 38.6771 319.861 39.4062C320.206 40.1289 320.379 40.9753 320.379 41.9453V42.9512H312.986C313.006 44.2077 313.318 45.1647 313.924 45.8223C314.529 46.4798 315.382 46.8086 316.482 46.8086C317.16 46.8086 317.758 46.7467 318.279 46.623C318.8 46.4993 319.34 46.3171 319.9 46.0762V47.502C319.36 47.7428 318.823 47.9186 318.289 48.0293C317.762 48.14 317.137 48.1953 316.414 48.1953C315.385 48.1953 314.487 47.987 313.719 47.5703C312.957 47.1471 312.365 46.5286 311.941 45.7148C311.518 44.901 311.307 43.9049 311.307 42.7266C311.307 41.5742 311.499 40.5781 311.883 39.7383C312.273 38.8919 312.82 38.2409 313.523 37.7852C314.233 37.3294 315.066 37.1016 316.023 37.1016ZM316.004 38.4297C315.138 38.4297 314.448 38.7129 313.934 39.2793C313.419 39.8457 313.113 40.6367 313.016 41.6523H318.68C318.673 41.0143 318.572 40.4544 318.377 39.9727C318.188 39.4844 317.898 39.1068 317.508 38.8398C317.117 38.5664 316.616 38.4297 316.004 38.4297ZM324.764 37.2969V41.7891H330.73V37.2969H332.352V48H330.73V43.166H324.764V48H323.133V37.2969H324.764ZM349.549 42.6289C349.549 43.7943 349.36 44.7936 348.982 45.627C348.611 46.4603 348.077 47.0983 347.381 47.541C346.684 47.9772 345.851 48.1953 344.881 48.1953C343.976 48.1953 343.185 48 342.508 47.6094C341.837 47.2188 341.307 46.6491 340.916 45.9004C340.532 45.1517 340.311 44.2402 340.252 43.166H337.41V48H335.789V37.2969H337.41V41.7891H340.271C340.363 40.7995 340.604 39.9564 340.994 39.2598C341.385 38.5632 341.912 38.0293 342.576 37.6582C343.24 37.2871 344.021 37.1016 344.92 37.1016C345.857 37.1016 346.671 37.3229 347.361 37.7656C348.058 38.2018 348.595 38.8333 348.973 39.6602C349.357 40.4805 349.549 41.4701 349.549 42.6289ZM341.912 42.6289C341.912 43.5273 342.013 44.2923 342.215 44.9238C342.423 45.5488 342.745 46.0273 343.182 46.3594C343.624 46.6849 344.197 46.8477 344.9 46.8477C345.597 46.8477 346.163 46.6849 346.6 46.3594C347.042 46.0339 347.365 45.5586 347.566 44.9336C347.775 44.3021 347.879 43.5339 347.879 42.6289C347.879 41.737 347.775 40.9818 347.566 40.3633C347.358 39.7448 347.036 39.276 346.6 38.957C346.163 38.6315 345.597 38.4688 344.9 38.4688C344.204 38.4688 343.634 38.6315 343.191 38.957C342.755 39.276 342.433 39.7448 342.225 40.3633C342.016 40.9818 341.912 41.737 341.912 42.6289Z" fill="#09A494"/>
<path d="M37.291 48V33.7227H47.9258V48H46.2852V35.1875H38.9512V48H37.291ZM49.9277 37.2969H51.666L54.0293 43.5078C54.166 43.8724 54.293 44.224 54.4102 44.5625C54.5273 44.8945 54.6315 45.2135 54.7227 45.5195C54.8138 45.8255 54.8854 46.1217 54.9375 46.4082H55.0059C55.097 46.0827 55.2272 45.6562 55.3965 45.1289C55.5658 44.5951 55.748 44.0514 55.9434 43.498L58.1797 37.2969H59.9277L55.2695 49.5723C55.0221 50.2298 54.7324 50.8027 54.4004 51.291C54.0749 51.7793 53.6777 52.1536 53.209 52.4141C52.7402 52.681 52.1738 52.8145 51.5098 52.8145C51.2038 52.8145 50.9336 52.7949 50.6992 52.7559C50.4648 52.7233 50.263 52.6842 50.0938 52.6387V51.3398C50.237 51.3724 50.4095 51.4017 50.6113 51.4277C50.8197 51.4538 51.0345 51.4668 51.2559 51.4668C51.6595 51.4668 52.0078 51.3887 52.3008 51.2324C52.6003 51.0827 52.8574 50.8613 53.0723 50.5684C53.2871 50.2754 53.4727 49.9271 53.6289 49.5234L54.2148 48.0195L49.9277 37.2969ZM63.2676 37.2969V41.7891H69.2344V37.2969H70.8555V48H69.2344V43.166H63.2676V48H61.6367V37.2969H63.2676ZM80.5332 37.2969H82.3203L77.7012 42.4629L82.6914 48H80.7871L75.9238 42.5703V48H74.293V37.2969H75.9238V42.4922L80.5332 37.2969ZM91.9199 38.6738H88.3945V48H86.793V38.6738H83.3164V37.2969H91.9199V38.6738ZM110.533 37.2969V48H109.068V41.0273C109.068 40.7409 109.075 40.4512 109.088 40.1582C109.107 39.8587 109.13 39.5592 109.156 39.2598H109.098L105.543 48H104.166L100.699 39.2598H100.641C100.66 39.5592 100.673 39.8587 100.68 40.1582C100.693 40.4512 100.699 40.7604 100.699 41.0859V48H99.2246V37.2969H101.402L104.859 46.0469L108.365 37.2969H110.533ZM118.023 37.1016C118.935 37.1016 119.716 37.3034 120.367 37.707C121.018 38.1107 121.516 38.6771 121.861 39.4062C122.206 40.1289 122.379 40.9753 122.379 41.9453V42.9512H114.986C115.006 44.2077 115.318 45.1647 115.924 45.8223C116.529 46.4798 117.382 46.8086 118.482 46.8086C119.16 46.8086 119.758 46.7467 120.279 46.623C120.8 46.4993 121.34 46.3171 121.9 46.0762V47.502C121.36 47.7428 120.823 47.9186 120.289 48.0293C119.762 48.14 119.137 48.1953 118.414 48.1953C117.385 48.1953 116.487 47.987 115.719 47.5703C114.957 47.1471 114.365 46.5286 113.941 45.7148C113.518 44.901 113.307 43.9049 113.307 42.7266C113.307 41.5742 113.499 40.5781 113.883 39.7383C114.273 38.8919 114.82 38.2409 115.523 37.7852C116.233 37.3294 117.066 37.1016 118.023 37.1016ZM118.004 38.4297C117.138 38.4297 116.448 38.7129 115.934 39.2793C115.419 39.8457 115.113 40.6367 115.016 41.6523H120.68C120.673 41.0143 120.572 40.4544 120.377 39.9727C120.188 39.4844 119.898 39.1068 119.508 38.8398C119.117 38.5664 118.616 38.4297 118.004 38.4297ZM126.764 37.2969V41.7891H132.73V37.2969H134.352V48H132.73V43.166H126.764V48H125.133V37.2969H126.764ZM151.549 42.6289C151.549 43.7943 151.36 44.7936 150.982 45.627C150.611 46.4603 150.077 47.0983 149.381 47.541C148.684 47.9772 147.851 48.1953 146.881 48.1953C145.976 48.1953 145.185 48 144.508 47.6094C143.837 47.2188 143.307 46.6491 142.916 45.9004C142.532 45.1517 142.311 44.2402 142.252 43.166H139.41V48H137.789V37.2969H139.41V41.7891H142.271C142.363 40.7995 142.604 39.9564 142.994 39.2598C143.385 38.5632 143.912 38.0293 144.576 37.6582C145.24 37.2871 146.021 37.1016 146.92 37.1016C147.857 37.1016 148.671 37.3229 149.361 37.7656C150.058 38.2018 150.595 38.8333 150.973 39.6602C151.357 40.4805 151.549 41.4701 151.549 42.6289ZM143.912 42.6289C143.912 43.5273 144.013 44.2923 144.215 44.9238C144.423 45.5488 144.745 46.0273 145.182 46.3594C145.624 46.6849 146.197 46.8477 146.9 46.8477C147.597 46.8477 148.163 46.6849 148.6 46.3594C149.042 46.0339 149.365 45.5586 149.566 44.9336C149.775 44.3021 149.879 43.5339 149.879 42.6289C149.879 41.737 149.775 40.9818 149.566 40.3633C149.358 39.7448 149.036 39.276 148.6 38.957C148.163 38.6315 147.597 38.4688 146.9 38.4688C146.204 38.4688 145.634 38.6315 145.191 38.957C144.755 39.276 144.433 39.7448 144.225 40.3633C144.016 40.9818 143.912 41.737 143.912 42.6289Z" fill="#212121"/>
</svg>
